<svg xmlns="http://www.w3.org/2000/svg" viewBox="0 0 256 256" width="256" height="256">
    <defs>
        <linearGradient id="sky" x1="0" y1="0" x2="1" y2="1">
            <stop offset="0%" stop-color="#0EA5E9"/>
            <stop offset="100%" stop-color="#7C3AED"/>
        </linearGradient>
        <radialGradient id="glow" cx="0.5" cy="0.5" r="0.5">
            <stop offset="0%" stop-color="white" stop-opacity="0.3"/>
            <stop offset="100%" stop-color="white" stop-opacity="0"/>
        </radialGradient>
        <clipPath id="card-clip">
            <rect x="28" y="28" width="200" height="200" rx="28"/>
        </clipPath>
        <clipPath id="inner-clip">
            <rect x="52" y="62" width="152" height="132" rx="12"/>
        </clipPath>
    </defs>
    <rect x="28" y="28" width="200" height="200" rx="28" fill="url(#sky)"/>
    <g clip-path="url(#card-clip)">
        <rect x="52" y="32" width="152" height="192" rx="14" fill="none" stroke="white" stroke-width="1.2"
              stroke-opacity="0.12" stroke-dasharray="8 5" transform="rotate(14,128,128)"/>
        <rect x="32" y="52" width="192" height="152" rx="14" fill="none" stroke="white" stroke-width="1.2"
              stroke-opacity="0.15" stroke-dasharray="8 5" transform="rotate(-6,128,128)"/>
    </g>
    <rect x="52" y="62" width="152" height="132" rx="12" fill="none" stroke="white" stroke-width="1.5"
          stroke-opacity="0.24" stroke-dasharray="10 4"/>
    <g clip-path="url(#inner-clip)">
        <polygon points="52,194 85,148 112,162 148,120 182,152 204,194" fill="white" fill-opacity="0.18"/>
        <polygon points="52,194 66,176 86,194" fill="white" fill-opacity="0.12"/>
        <circle cx="170" cy="85" r="20" fill="url(#glow)"/>
        <circle cx="170" cy="85" r="10" fill="white" fill-opacity="0.32"/>
        <circle cx="72" cy="78" r="1.2" fill="white" fill-opacity="0.15"/>
        <circle cx="105" cy="90" r="0.9" fill="white" fill-opacity="0.1"/>
        <circle cx="135" cy="75" r="1.3" fill="white" fill-opacity="0.17"/>
    </g>
</svg>
